<?xml version="1.0" encoding="UTF-8"?>
<svg id="Laag_1" data-name="Laag 1" xmlns="http://www.w3.org/2000/svg" viewBox="0 0 344.98 119.12">
  <defs>
    <style>
      .cls-1 {
        font-family: BaiJamjuree-ExtraLight, 'Bai Jamjuree';
        font-size: 23.25px;
        font-weight: 200;
      }

      .cls-2 {
        stroke-width: .71px;
      }

      .cls-2, .cls-3, .cls-4, .cls-5, .cls-6, .cls-7 {
        stroke: #000;
        stroke-miterlimit: 10;
      }

      .cls-3, .cls-8 {
        fill: #fff;
      }

      .cls-4 {
        stroke-width: .5px;
      }

      .cls-4, .cls-5, .cls-6, .cls-7 {
        fill: none;
      }

      .cls-5 {
        stroke-width: .69px;
      }

      .cls-6 {
        stroke-width: .78px;
      }
    </style>
  </defs>
  <rect class="cls-8" x="240.23" y="12.85" width="93.81" height="93.81" rx="46.91" ry="46.91"/>
  <rect class="cls-5" x="264.82" y="37.39" width="43.97" height="42.52" rx="12.66" ry="12.66"/>
  <ellipse class="cls-6" cx="287.03" cy="58.93" rx="8.92" ry="8.38"/>
  <ellipse class="cls-2" cx="300.11" cy="44.84" rx="1.93" ry="1.79"/>
  <rect class="cls-8" x="18.49" y="12.95" width="93.81" height="93.81" rx="46.91" ry="46.91"/>
  <ellipse class="cls-7" cx="65.67" cy="59.05" rx="21.43" ry="20.2"/>
  <line class="cls-4" x1="65.13" y1="78.87" x2="65.13" y2="56.47"/>
  <path d="M64.35,57.54v20.86c0,.98,1.53.99,1.53,0v-20.86c0-.98-1.53-.99-1.53,0h0Z"/>
  <path d="M65.97,57.72c-.05-1.42.98-2.59,2.23-3.15,1.64-.72,3.59-.36,5.29-.08.4.07.82-.11.94-.53.1-.37-.12-.87-.53-.94-2.17-.37-4.51-.73-6.57.28-1.66.81-2.93,2.52-2.87,4.41.03.98,1.55.98,1.52,0h0Z"/>
  <path d="M59.66,65.14h11.39c.98,0,.99-1.53,0-1.53h-11.39c-.98,0-.99,1.53,0,1.53h0Z"/>
  <rect class="cls-8" x="128.92" y="12.19" width="93.81" height="93.81" rx="46.91" ry="46.91"/>
  <rect class="cls-3" x="154.24" y="39.24" width="43.11" height="38.83" rx="4.15" ry="4.15"/>
  <text class="cls-1" transform="translate(164.29 64.85) scale(1.28 1)"><tspan x="0" y="0">in</tspan></text>
</svg>