<?xml version="1.0" encoding="UTF-8"?>
<svg id="Laag_1" data-name="Laag 1" xmlns="http://www.w3.org/2000/svg" viewBox="0 0 1366 720.96">
  <defs>
    <style>
      .cls-1 {
        font-family: ArialMT, Arial;
        font-size: 125.6px;
      }
    </style>
  </defs>
  <g>
    <path d="M580.81,358.49l53.66-181.26h72.27l-89.2,241.68c-17.17,46.59-30.77,75.49-40.78,86.68-10.02,11.2-30.05,16.8-60.1,16.8-6.04,0-10.89-.04-14.55-.11-3.66-.08-9.15-.34-16.46-.79v-51.4l8.59.45c6.68.3,13.04.07,19.08-.68,6.04-.75,11.13-2.48,15.26-5.19,3.97-2.56,7.67-7.89,11.09-16.01,3.42-8.12,4.81-13.08,4.17-14.88l-95.4-256.56h75.6l56.76,181.26Z"/>
    <path d="M943.94,350.83c-1.75,14.58-9.78,29.39-24.09,44.41-22.26,23.9-53.42,35.85-93.49,35.85-33.07,0-62.25-10.07-87.53-30.21-25.28-20.14-37.92-52.9-37.92-98.3,0-42.53,11.41-75.15,34.22-97.84,22.81-22.69,52.43-34.04,88.84-34.04,21.62,0,41.1,3.83,58.43,11.5,17.33,7.67,31.64,19.77,42.93,36.3,10.17,14.58,16.77,31.49,19.79,50.73,1.75,11.27,2.46,27.5,2.15,48.7h-177.92c.95,24.65,9.14,41.93,24.57,51.85,9.38,6.17,20.67,9.24,33.87,9.24,13.99,0,25.36-3.75,34.11-11.27,4.77-4.06,8.98-9.69,12.64-16.91h69.4ZM876.69,275.53c-1.11-16.98-6.56-29.87-16.34-38.67-9.78-8.79-21.9-13.19-36.37-13.19-15.74,0-27.95,4.66-36.61,13.98-8.67,9.32-14.11,21.95-16.34,37.88h105.66Z"/>
    <path d="M1105.64,236.53c-27.35,0-45.71,8.42-55.09,25.25-5.25,9.47-7.87,24.05-7.87,43.74v117.46h-68.45v-245.74h64.87v42.83c10.49-16.38,19.63-27.58,27.43-33.59,12.72-10.07,29.25-15.11,49.61-15.11,1.27,0,2.34.04,3.22.11.87.08,2.82.19,5.84.34v65.83c-4.29-.45-8.11-.75-11.45-.9-3.34-.15-6.04-.23-8.11-.23Z"/>
    <rect x="151.08" y="113.63" width="72.86" height="329.98"/>
    <rect x="361.87" y="112.87" width="72.86" height="332.31"/>
    <path d="M219.98,239.87h141.29c0,30.57-24.82,55.4-55.4,55.4h-85.9v-55.4h0Z"/>
  </g>
  <text class="cls-1" transform="translate(1150.18 165.69) scale(.96 1)"><tspan x="0" y="0">®</tspan></text>
</svg>