<?xml version="1.0" encoding="UTF-8"?>
<svg id="Laag_1" data-name="Laag 1" xmlns="http://www.w3.org/2000/svg" viewBox="0 0 277.48 236.74">
  <defs>
    <style>
      .cls-1 {
        stroke: #000;
        stroke-width: 2px;
      }

      .cls-1, .cls-2 {
        stroke-miterlimit: 10;
      }

      .cls-2 {
        stroke: #fff;
        stroke-width: 4px;
      }
    </style>
  </defs>
  <ellipse class="cls-1" cx="142.51" cy="119.99" rx="80.7" ry="78.12"/>
  <g id="dotL5X.tif">
    <g>
      <path class="cls-2" d="M120.53,118.17v4.02l22.04-6.14c.12,1.63.07,3.27.14,4.9s.22,3.22.3,4.81c.11,2.1-.11,4.09.71,6.12l-7.26,4.21.05,1.73,8.6-2.64,1.58.04,8.28,2.59-.14-1.83-7.25-4.23c.3-.86.61-1.72.68-2.64.25-2.99.16-6.19.29-9.21.05-1.27.27-2.57.15-3.87l22.18,6.14v-4.02l-21.72-11.49c-.04-2.8.06-5.58.12-8.38.04-1.68.51-3.47-.32-5.09-1.37-2.69-5.29-2.64-6.6.06-.88,1.82-.29,5.28-.23,7.36s.06,4.05.07,6.07l-21.67,11.47Z"/>
      <path d="M120.53,118.17l21.67-11.47c0-2.02-.01-4.05-.07-6.07s-.65-5.54.23-7.36c1.31-2.7,5.22-2.76,6.6-.06.83,1.62.36,3.41.32,5.09-.06,2.8-.16,5.58-.12,8.38l21.72,11.49v4.02l-22.18-6.14c.12,1.3-.1,2.59-.15,3.87-.13,3.02-.04,6.21-.29,9.21-.08.91-.39,1.78-.68,2.64l7.25,4.23.14,1.83-8.28-2.59-1.58-.04-8.6,2.64-.05-1.73,7.26-4.21c-.82-2.03-.6-4.02-.71-6.12-.08-1.59-.23-3.22-.3-4.81s-.03-3.27-.14-4.9l-22.04,6.14v-4.02Z"/>
    </g>
  </g>
</svg>